inDegrees=yes
name=ik_example_filtered_mov
DataType=double
version=3
OpenSimVersion=4.5
endheader
time	pelvis_tilt	pelvis_list	pelvis_rotation	pelvis_tx	pelvis_ty	pelvis_tz	hip_flexion_r	hip_adduction_r	hip_rotation_r	knee_angle_r	knee_angle_r_beta	ankle_angle_r	subtalar_angle_r	mtp_angle_r	hip_flexion_l	hip_adduction_l	hip_rotation_l	knee_angle_l	knee_angle_l_beta	ankle_angle_l	subtalar_angle_l	mtp_angle_l	lumbar_extension	lumbar_bending	lumbar_rotation	arm_flex_r	arm_add_r	arm_rot_r	elbow_flex_r	pro_sup_r	wrist_flex_r	wrist_dev_r	arm_flex_l	arm_add_l	arm_rot_l	elbow_flex_l	pro_sup_l	wrist_flex_l	wrist_dev_l
16.27781796455383	-7.827481034603108e-14	0	0	0	0.93	0	121.5745525613253	-37.78066098417105	31.48198332590784	119.8479278300691	2.091740942327249	-4.999992936587289	0	0	0	0	0	0	0	0	0	0	0	0	0	0	0	0	0	0	0	0	0	0	0	0	0	0	0
16.28444409370422	-7.827481034603121e-14	4.404902355149545e-21	5.649800061504203e-29	4.568569011806028e-23	0.93	-4.015984163209826e-22	122.3384559906875	-38.49310930698718	32.32643144551417	119.8224629808085	2.091296496864128	-4.999992964541847	7.614574530892905e-24	-5.406912896940112e-23	2.12432482312558e-27	4.17004745827229e-21	3.61587203936269e-28	0	-9.78721955349074e-17	-5.819551672762894e-19	-3.307310468923663e-23	3.707665470921961e-23	3.567147259664268e-22	0	6.84048864470614e-22	-5.600985788972807e-25	1.116586650805337e-20	-9.826084157790626e-20	0	0	4.520733262764992e-22	-8.339235316966362e-22	-8.742606773558807e-19	4.490117581039801e-23	1.014481061256466e-18	0	0	-1.700967812606421e-22	2.100280920368107e-22
16.2953097820282	-7.827481034603108e-14	0	0	0	0.93	0	123.1126131145376	-39.17427670671315	33.18170716257681	119.8013994736673	2.090928869312497	-4.999992993098613	0	0	0	0	0	0	0	0	0	0	0	0	0	0	0	0	0	0	0	0	0	0	0	0	0	0	0
16.3041524887085	-7.827481034603089e-14	-6.36905252100099e-19	-2.191268264027672e-28	2.308552173819127e-20	0.93	3.562092247806317e-21	123.882179874685	-39.82922311827538	34.03325662119525	119.7640070527463	2.090276248452133	-4.999993021281806	-2.752351951127419e-19	7.697485642527201e-23	1.982097164438957e-29	-1.516902868056173e-20	0	1.609382782871677e-13	2.808902848543833e-15	-1.311575903651762e-17	3.619254786733916e-22	-7.006366006492207e-24	7.926880291630292e-21	0	-7.44242033198842e-21	-1.007339446810822e-23	-3.073938031554352e-25	-9.71264457992058e-19	1.609382778107108e-13	1.609380646488771e-13	-6.79697162471241e-22	-2.355577919403021e-22	4.913061877538233e-18	2.769761108310214e-18	-5.355620727541134e-20	1.609376548405754e-13	1.609389455909132e-13	1.171732012448374e-21	1.425521392798347e-22
16.31086540222168	-7.827481034603103e-14	6.614887165232981e-29	-3.245287604264606e-18	-2.869478046297892e-20	0.93	2.819395109075428e-20	124.6484695470107	-40.45763736191581	34.88232863099395	119.7165124129031	2.08944731060982	-4.999993049005607	8.338753649490139e-18	7.120659698645706e-19	-4.42291776978162e-18	4.922808289608821e-19	-1.592960725617726e-17	2.274463855347489e-15	3.973341648688343e-17	1.141657185622491e-18	-4.53341196691064e-18	3.592647181331324e-19	1.100497994207037e-17	1.9314735813036e-17	2.708395234708142e-18	-8.885416969942363e-19	-1.06017530478971e-19	1.259943200157353e-19	2.274463967417559e-15	2.274464020844542e-15	1.883301168809303e-21	-2.888368589561552e-22	-6.46444278183552e-19	3.973418579346886e-19	9.134854465804422e-19	2.274463967417345e-15	2.2744640208441e-15	-1.100084136274442e-20	-1.114311078577473e-21
16.31680107116699	-7.827481034603108e-14	0	0	0	0.93	0	125.4139529011734	-41.05781775462755	35.73600189670864	119.667793640683	2.088597007627051	-4.999993072183379	0	0	0	0	0	1.287153022335608e-38	1.306487527093806e-40	0	0	0	0	0	0	0	0	0	0	0	0	0	0	0	0	0	5.667021155105666e-39	0	0
16.32230758666992	-7.827481034603108e-14	4.310455369189608e-35	0	0	0.93	0	126.1527425163147	-41.64448347650347	36.56327193389706	119.5725559068053	2.086934795598746	-4.999993089923533	0	0	-5.638158505039206e-36	-1.691401218781738e-35	0	0	0	0	0	0	0	0	0	0	0	0	0	0	0	0	0	1.515394465730722e-36	0	0	0	0	0
16.33029985427856	-7.827481034603045e-14	0	0	0	0.93	0	126.9071445309893	-42.19546716389608	37.40803021638931	119.5160125279343	2.085947927467245	-4.999993102460097	0	0	0	0	0	0	0	0	0	0	0	0	0	0	0	0	0	0	0	0	0	0	0	0	0	0	0
16.335289478302	-7.827481035255581e-14	7.435876015806586e-19	2.663994966756445e-24	2.006814672640857e-19	0.93	7.01864884547693e-19	127.6160948220734	-42.74548256064536	38.21575507276755	119.3855955135658	2.083671721165882	-4.999993099355352	1.457106261525765e-14	5.860559757281581e-15	-4.20060772456118e-29	-6.869414941237098e-19	0	3.985988668619984e-15	6.96072266973474e-17	-2.389588936428466e-15	-3.217869726278691e-15	-1.939005662814308e-14	5.576505492210219e-26	-1.147957924097186e-21	-1.295305268013195e-14	1.614006354988474e-19	-1.023956397410135e-15	-1.141211182572753e-16	3.986144668335065e-15	3.985988361933334e-15	-9.704362713821716e-20	-1.577842642043089e-20	-8.168536319110596e-17	-1.335021972114711e-16	-1.955834806006024e-15	3.985987632292586e-15	3.985988727787985e-15	6.535664600513304e-19	-2.367897394314092e-20
